# xmcd
#
# Track frame offsets:
# 150
# 12843
# 26478
# 44492
# 61010
# 76402
# 94937
# 108613
# 121353
# 134820
# 147626
# 163354
# 178591
#
# Disc length: 2584 seconds
#
#
# Revision: 0
# Processed by: cddbd v1.5.2PL0 Copyright (c) Steve Scherf et al.
# Submitted via: FreeRIP 2.50 
#
DISCID=bc0a160d
DTITLE=Lucy Angel - A Girls Gotta Do What A Girls Gotta Do
DYEAR=2006
DGENRE=Country
TTITLE0=How Long
TTITLE1=Dance
TTITLE2=Wantin' Not The Gettin'
TTITLE3=Obsession
TTITLE4=Baby It's You
TTITLE5=Why'd I Ever
TTITLE6=Come On Down
TTITLE7=You Aint Woman Enough (To Take My Man)
TTITLE8=Sweet
TTITLE9=You Turn Me On
TTITLE10=Let's Talk About You
TTITLE11=Baby It's Only Love
TTITLE12=Just About Every Night
EXTD=
EXTT0=
EXTT1=
EXTT2=
EXTT3=
EXTT4=
EXTT5=
EXTT6=
EXTT7=
EXTT8=
EXTT9=
EXTT10=
EXTT11=
EXTT12=
PLAYORDER=
